<svg width="1600" height="900" viewBox="0 0 1600 900" xmlns="http://www.w3.org/2000/svg">
  <defs>
    <marker id="arrow" markerWidth="10" markerHeight="8" refX="9" refY="4" orient="auto">
      <path d="M0,0 L10,4 L0,8 Z" fill="#52616f"/>
    </marker>
    <marker id="arrow-green" markerWidth="10" markerHeight="8" refX="9" refY="4" orient="auto">
      <path d="M0,0 L10,4 L0,8 Z" fill="#3c7a58"/>
    </marker>
    <style>
      text { font-family: "PingFang SC", "Heiti SC", "Noto Sans CJK SC", Arial, sans-serif; }
      .small { fill: #6b7280; font-size: 18px; }
      .label { fill: #1f2933; font-size: 23px; font-weight: 650; }
      .micro { fill: #6b7280; font-size: 16px; }
    </style>
  </defs>
  <rect width="100%" height="100%" fill="white"/>
<rect x="90" y="58" width="260" height="92" rx="16" fill="#f5f7fa" stroke="#d6dee8" stroke-width="2"/>
<text x="220" y="96" fill="#1f2933" font-size="21" font-weight="750" text-anchor="middle">编码单元</text>
<text x="220" y="124" fill="#6b7280" font-size="16" font-weight="400" text-anchor="middle">设计认知决策节点</text>
<rect x="368" y="58" width="324" height="92" rx="16" fill="#eaf3fb" stroke="#3b6f9f" stroke-width="2.3"/>
<text x="530" y="92" fill="#3b6f9f" font-size="29" font-weight="800" text-anchor="middle">H</text>
<text x="530" y="120" fill="#1f2933" font-size="19" font-weight="750" text-anchor="middle">人类主导</text>
<text x="530" y="140" fill="#6b7280" font-size="14" font-weight="400" text-anchor="middle">学习者保留关键决策权</text>
<rect x="728" y="58" width="324" height="92" rx="16" fill="#fff1e8" stroke="#b66a45" stroke-width="2.3"/>
<text x="890" y="92" fill="#b66a45" font-size="29" font-weight="800" text-anchor="middle">A</text>
<text x="890" y="120" fill="#1f2933" font-size="19" font-weight="750" text-anchor="middle">AI输出实际占据</text>
<text x="890" y="140" fill="#6b7280" font-size="14" font-weight="400" text-anchor="middle">采纳 AI 输出，缺少显式协商</text>
<rect x="1088" y="58" width="324" height="92" rx="16" fill="#f2eefb" stroke="#6f5aa8" stroke-width="2.3"/>
<text x="1250" y="92" fill="#6f5aa8" font-size="29" font-weight="800" text-anchor="middle">J</text>
<text x="1250" y="120" fill="#1f2933" font-size="19" font-weight="750" text-anchor="middle">共同协商</text>
<text x="1250" y="140" fill="#6b7280" font-size="14" font-weight="400" text-anchor="middle">多轮对话后共同确定</text>
<rect x="90" y="162" width="242" height="101" rx="16" fill="#eaf3fb" stroke="#3b6f9f" stroke-width="2"/>
<text x="118" y="205" fill="#3b6f9f" font-size="21" font-weight="800" text-anchor="start">1. 目标设定</text>
<text x="118" y="234" fill="#6b7280" font-size="15" font-weight="400" text-anchor="start">定义问题与目标</text>
<line x1="210" y1="263" x2="210" y2="283" stroke="#8c98a6" stroke-width="2" fill="none" marker-end="url(#arrow)"/>
<rect x="368" y="162" width="324" height="101" rx="14" fill="white" stroke="#d5dde7" stroke-width="1.8"/>
<text x="530" y="208" fill="#1f2933" font-size="20" font-weight="750" text-anchor="middle">学习者定义目标</text>
<text x="530" y="238" fill="#6b7280" font-size="14" font-weight="400" text-anchor="middle">决策权在人</text>
<rect x="728" y="162" width="324" height="101" rx="14" fill="white" stroke="#d5dde7" stroke-width="1.8"/>
<text x="890" y="208" fill="#1f2933" font-size="20" font-weight="750" text-anchor="middle">AI目标被直接采用</text>
<text x="890" y="238" fill="#6b7280" font-size="14" font-weight="400" text-anchor="middle">行为层面A</text>
<rect x="1088" y="162" width="324" height="101" rx="14" fill="white" stroke="#d5dde7" stroke-width="1.8"/>
<text x="1250" y="208" fill="#1f2933" font-size="20" font-weight="750" text-anchor="middle">协商目标与约束</text>
<text x="1250" y="238" fill="#6b7280" font-size="14" font-weight="400" text-anchor="middle">双方推理纳入</text>
<rect x="90" y="287" width="242" height="101" rx="16" fill="#fbf4df" stroke="#9a7330" stroke-width="2"/>
<text x="118" y="330" fill="#9a7330" font-size="21" font-weight="800" text-anchor="start">2. 策略选择</text>
<text x="118" y="359" fill="#6b7280" font-size="15" font-weight="400" text-anchor="start">选择方法与路径</text>
<line x1="210" y1="388" x2="210" y2="408" stroke="#8c98a6" stroke-width="2" fill="none" marker-end="url(#arrow)"/>
<rect x="368" y="287" width="324" height="101" rx="14" fill="white" stroke="#d5dde7" stroke-width="1.8"/>
<text x="530" y="333" fill="#1f2933" font-size="20" font-weight="750" text-anchor="middle">学习者选择路径</text>
<text x="530" y="363" fill="#6b7280" font-size="14" font-weight="400" text-anchor="middle">决策权在人</text>
<rect x="728" y="287" width="324" height="101" rx="14" fill="white" stroke="#d5dde7" stroke-width="1.8"/>
<text x="890" y="333" fill="#1f2933" font-size="20" font-weight="750" text-anchor="middle">沿用AI建议路径</text>
<text x="890" y="363" fill="#6b7280" font-size="14" font-weight="400" text-anchor="middle">行为层面A</text>
<rect x="1088" y="287" width="324" height="101" rx="14" fill="white" stroke="#d5dde7" stroke-width="1.8"/>
<text x="1250" y="333" fill="#1f2933" font-size="20" font-weight="750" text-anchor="middle">比较方案后选择</text>
<text x="1250" y="363" fill="#6b7280" font-size="14" font-weight="400" text-anchor="middle">双方推理纳入</text>
<rect x="90" y="412" width="242" height="101" rx="16" fill="#fff1e8" stroke="#b66a45" stroke-width="2"/>
<text x="118" y="455" fill="#b66a45" font-size="21" font-weight="800" text-anchor="start">3. 过程监控</text>
<text x="118" y="484" fill="#6b7280" font-size="15" font-weight="400" text-anchor="start">检查偏离与调整</text>
<line x1="210" y1="513" x2="210" y2="533" stroke="#8c98a6" stroke-width="2" fill="none" marker-end="url(#arrow)"/>
<rect x="368" y="412" width="324" height="101" rx="14" fill="white" stroke="#d5dde7" stroke-width="1.8"/>
<text x="530" y="458" fill="#1f2933" font-size="20" font-weight="750" text-anchor="middle">学习者主动纠偏</text>
<text x="530" y="488" fill="#6b7280" font-size="14" font-weight="400" text-anchor="middle">决策权在人</text>
<rect x="728" y="412" width="324" height="101" rx="14" fill="white" stroke="#d5dde7" stroke-width="1.8"/>
<text x="890" y="458" fill="#1f2933" font-size="20" font-weight="750" text-anchor="middle">跟随AI输出推进</text>
<text x="890" y="488" fill="#6b7280" font-size="14" font-weight="400" text-anchor="middle">行为层面A</text>
<rect x="1088" y="412" width="324" height="101" rx="14" fill="white" stroke="#d5dde7" stroke-width="1.8"/>
<text x="1250" y="458" fill="#1f2933" font-size="20" font-weight="750" text-anchor="middle">共同检查并调整</text>
<text x="1250" y="488" fill="#6b7280" font-size="14" font-weight="400" text-anchor="middle">双方推理纳入</text>
<rect x="90" y="537" width="242" height="101" rx="16" fill="#f2eefb" stroke="#6f5aa8" stroke-width="2"/>
<text x="118" y="580" fill="#6f5aa8" font-size="21" font-weight="800" text-anchor="start">4. 结果评估</text>
<text x="118" y="609" fill="#6b7280" font-size="15" font-weight="400" text-anchor="start">判断产出质量</text>
<rect x="368" y="537" width="324" height="101" rx="14" fill="white" stroke="#d5dde7" stroke-width="1.8"/>
<text x="530" y="583" fill="#1f2933" font-size="20" font-weight="750" text-anchor="middle">学习者独立评判</text>
<text x="530" y="613" fill="#6b7280" font-size="14" font-weight="400" text-anchor="middle">决策权在人</text>
<rect x="728" y="537" width="324" height="101" rx="14" fill="white" stroke="#d5dde7" stroke-width="1.8"/>
<text x="890" y="583" fill="#1f2933" font-size="20" font-weight="750" text-anchor="middle">接受AI评估标准</text>
<text x="890" y="613" fill="#6b7280" font-size="14" font-weight="400" text-anchor="middle">行为层面A</text>
<rect x="1088" y="537" width="324" height="101" rx="14" fill="white" stroke="#d5dde7" stroke-width="1.8"/>
<text x="1250" y="583" fill="#1f2933" font-size="20" font-weight="750" text-anchor="middle">共同评估产出</text>
<text x="1250" y="613" fill="#6b7280" font-size="14" font-weight="400" text-anchor="middle">双方推理纳入</text>
<rect x="120" y="720" width="1360" height="105" rx="20" fill="#fff0f2" stroke="#b85c6a" stroke-width="2.4" stroke-dasharray="12 8"/>
<text x="170" y="763" fill="#b85c6a" font-size="32" font-weight="800" text-anchor="start">T</text>
<text x="225" y="762" fill="#1f2933" font-size="23" font-weight="760" text-anchor="start">动态切换指标</text>
<text x="225" y="793" fill="#1f2933" font-size="18" font-weight="500" text-anchor="start">记录 H / A / J 在节点内或跨节点之间的切换频率与方向，不作为第四种并列状态</text>
<path d="M1035 775 C1085 730 1145 730 1195 775" stroke="#b85c6a" stroke-width="2.5" fill="none" stroke-dasharray="7 6" marker-end="url(#arrow)"/>
<text x="1050" y="800" fill="#3b6f9f" font-size="20" font-weight="800" text-anchor="middle">H</text>
<text x="1115" y="754" fill="#b66a45" font-size="20" font-weight="800" text-anchor="middle">A</text>
<text x="1195" y="800" fill="#6f5aa8" font-size="20" font-weight="800" text-anchor="middle">J</text>
</svg>
