<svg width="1600" height="900" viewBox="0 0 1600 900" xmlns="http://www.w3.org/2000/svg">
  <defs>
    <marker id="arrow" markerWidth="10" markerHeight="8" refX="9" refY="4" orient="auto">
      <path d="M0,0 L10,4 L0,8 Z" fill="#52616f"/>
    </marker>
    <marker id="arrow-green" markerWidth="10" markerHeight="8" refX="9" refY="4" orient="auto">
      <path d="M0,0 L10,4 L0,8 Z" fill="#3c7a58"/>
    </marker>
    <style>
      text { font-family: "Source Sans 3", "Inter", "Helvetica Neue", Arial, sans-serif; }
      .small { fill: #6b7280; font-size: 18px; }
      .label { fill: #1f2933; font-size: 23px; font-weight: 650; }
      .micro { fill: #6b7280; font-size: 16px; }
    </style>
  </defs>
  <rect width="100%" height="100%" fill="white"/>
<rect x="150" y="88" width="1380" height="74" rx="16" fill="#f5f7fa" stroke="#d6dee8" stroke-width="2"/>
<text x="540" y="120" fill="#1f2933" font-size="17" font-weight="750" text-anchor="middle">Unit of Analysis</text>
<text x="540" y="146" fill="#6b7280" font-size="12" font-weight="400" text-anchor="middle">Individual → system</text>
<line x1="430" y1="88" x2="430" y2="622" stroke="#d6dee8" stroke-width="1.3" fill="none"/>
<text x="760" y="120" fill="#1f2933" font-size="17" font-weight="750" text-anchor="middle">AI Interaction</text>
<text x="760" y="146" fill="#6b7280" font-size="12" font-weight="400" text-anchor="middle">How output enters decisions</text>
<line x1="650" y1="88" x2="650" y2="622" stroke="#d6dee8" stroke-width="1.3" fill="none"/>
<text x="980" y="120" fill="#1f2933" font-size="17" font-weight="750" text-anchor="middle">Control Rights</text>
<text x="980" y="146" fill="#6b7280" font-size="12" font-weight="400" text-anchor="middle">Who leads key decisions</text>
<line x1="870" y1="88" x2="870" y2="622" stroke="#d6dee8" stroke-width="1.3" fill="none"/>
<text x="1200" y="120" fill="#1f2933" font-size="17" font-weight="750" text-anchor="middle">Dynamic Process</text>
<text x="1200" y="146" fill="#6b7280" font-size="12" font-weight="400" text-anchor="middle">Whether transitions are captured</text>
<line x1="1090" y1="88" x2="1090" y2="622" stroke="#d6dee8" stroke-width="1.3" fill="none"/>
<text x="1420" y="120" fill="#1f2933" font-size="17" font-weight="750" text-anchor="middle">Operational Link</text>
<text x="1420" y="146" fill="#6b7280" font-size="12" font-weight="400" text-anchor="middle">Codable / measurable</text>
<line x1="1310" y1="88" x2="1310" y2="622" stroke="#d6dee8" stroke-width="1.3" fill="none"/>
<rect x="150" y="162" width="1380" height="115" rx="0" fill="#f4f6f8" stroke="#a8b1bd" stroke-width="1.5"/>
<text x="174" y="207" fill="#1f2933" font-size="21" font-weight="760" text-anchor="start">SRL</text>
<text x="174" y="237" fill="#6b7280" font-size="16" font-weight="400" text-anchor="start">Self-regulated learning</text>
<ellipse cx="540" cy="219" rx="58" ry="24" fill="#eef1f4" stroke="#8b95a1" stroke-width="1.8"/>
<text x="540" y="226" fill="#8b95a1" font-size="15" font-weight="750" text-anchor="middle">Individual</text>
<ellipse cx="760" cy="219" rx="58" ry="24" fill="#eef1f4" stroke="#9aa4af" stroke-width="1.8"/>
<text x="760" y="226" fill="#9aa4af" font-size="15" font-weight="750" text-anchor="middle">Weak</text>
<ellipse cx="980" cy="219" rx="58" ry="24" fill="#eef1f4" stroke="#9aa4af" stroke-width="1.8"/>
<text x="980" y="226" fill="#9aa4af" font-size="15" font-weight="750" text-anchor="middle">Weak</text>
<ellipse cx="1200" cy="219" rx="58" ry="24" fill="#fbf4df" stroke="#9a7330" stroke-width="1.8"/>
<text x="1200" y="226" fill="#9a7330" font-size="15" font-weight="750" text-anchor="middle">Medium</text>
<ellipse cx="1420" cy="219" rx="58" ry="24" fill="#fbf4df" stroke="#9a7330" stroke-width="1.8"/>
<text x="1420" y="226" fill="#9a7330" font-size="15" font-weight="750" text-anchor="middle">Medium</text>
<rect x="150" y="277" width="1380" height="115" rx="0" fill="#f4f6f8" stroke="#a8b1bd" stroke-width="1.5"/>
<text x="174" y="322" fill="#1f2933" font-size="21" font-weight="760" text-anchor="start">TAM / UTAUT</text>
<text x="174" y="352" fill="#6b7280" font-size="16" font-weight="400" text-anchor="start">Technology acceptance</text>
<ellipse cx="540" cy="334" rx="58" ry="24" fill="#eef1f4" stroke="#8b95a1" stroke-width="1.8"/>
<text x="540" y="341" fill="#8b95a1" font-size="15" font-weight="750" text-anchor="middle">Individual</text>
<ellipse cx="760" cy="334" rx="58" ry="24" fill="#eef1f4" stroke="#9aa4af" stroke-width="1.8"/>
<text x="760" y="341" fill="#9aa4af" font-size="15" font-weight="750" text-anchor="middle">Weak</text>
<ellipse cx="980" cy="334" rx="58" ry="24" fill="#eef1f4" stroke="#9aa4af" stroke-width="1.8"/>
<text x="980" y="341" fill="#9aa4af" font-size="15" font-weight="750" text-anchor="middle">Weak</text>
<ellipse cx="1200" cy="334" rx="58" ry="24" fill="#eef1f4" stroke="#9aa4af" stroke-width="1.8"/>
<text x="1200" y="341" fill="#9aa4af" font-size="15" font-weight="750" text-anchor="middle">Weak</text>
<ellipse cx="1420" cy="334" rx="58" ry="24" fill="#edf7f0" stroke="#3c7a58" stroke-width="1.8"/>
<text x="1420" y="341" fill="#3c7a58" font-size="15" font-weight="750" text-anchor="middle">Strong</text>
<rect x="150" y="392" width="1380" height="115" rx="0" fill="#f4f6f8" stroke="#a8b1bd" stroke-width="1.5"/>
<text x="174" y="437" fill="#1f2933" font-size="21" font-weight="760" text-anchor="start">Self-efficacy</text>
<text x="174" y="467" fill="#6b7280" font-size="16" font-weight="400" text-anchor="start">Self-efficacy theory</text>
<ellipse cx="540" cy="449" rx="58" ry="24" fill="#eef1f4" stroke="#8b95a1" stroke-width="1.8"/>
<text x="540" y="456" fill="#8b95a1" font-size="15" font-weight="750" text-anchor="middle">Individual</text>
<ellipse cx="760" cy="449" rx="58" ry="24" fill="#eef1f4" stroke="#9aa4af" stroke-width="1.8"/>
<text x="760" y="456" fill="#9aa4af" font-size="15" font-weight="750" text-anchor="middle">Weak</text>
<ellipse cx="980" cy="449" rx="58" ry="24" fill="#eef1f4" stroke="#9aa4af" stroke-width="1.8"/>
<text x="980" y="456" fill="#9aa4af" font-size="15" font-weight="750" text-anchor="middle">Weak</text>
<ellipse cx="1200" cy="449" rx="58" ry="24" fill="#eef1f4" stroke="#9aa4af" stroke-width="1.8"/>
<text x="1200" y="456" fill="#9aa4af" font-size="15" font-weight="750" text-anchor="middle">Weak</text>
<ellipse cx="1420" cy="449" rx="58" ry="24" fill="#fbf4df" stroke="#9a7330" stroke-width="1.8"/>
<text x="1420" y="456" fill="#9a7330" font-size="15" font-weight="750" text-anchor="middle">Medium</text>
<rect x="150" y="507" width="1380" height="115" rx="0" fill="#edf7f0" stroke="#3c7a58" stroke-width="1.5"/>
<text x="174" y="552" fill="#1f2933" font-size="21" font-weight="760" text-anchor="start">Distributed cognition</text>
<text x="174" y="582" fill="#6b7280" font-size="16" font-weight="400" text-anchor="start">Cognitive system lens</text>
<ellipse cx="540" cy="564" rx="58" ry="24" fill="#edf7f0" stroke="#3c7a58" stroke-width="2.4"/>
<text x="540" y="571" fill="#3c7a58" font-size="15" font-weight="750" text-anchor="middle">System</text>
<ellipse cx="760" cy="564" rx="58" ry="24" fill="#edf7f0" stroke="#3c7a58" stroke-width="2.4"/>
<text x="760" y="571" fill="#3c7a58" font-size="15" font-weight="750" text-anchor="middle">Strong</text>
<ellipse cx="980" cy="564" rx="58" ry="24" fill="#f2eefb" stroke="#6f5aa8" stroke-width="2.4"/>
<text x="980" y="571" fill="#6f5aa8" font-size="15" font-weight="750" text-anchor="middle">Extendable</text>
<ellipse cx="1200" cy="564" rx="58" ry="24" fill="#edf7f0" stroke="#3c7a58" stroke-width="2.4"/>
<text x="1200" y="571" fill="#3c7a58" font-size="15" font-weight="750" text-anchor="middle">Strong</text>
<ellipse cx="1420" cy="564" rx="58" ry="24" fill="#fff0f2" stroke="#b85c6a" stroke-width="2.4"/>
<text x="1420" y="571" fill="#b85c6a" font-size="15" font-weight="750" text-anchor="middle">Needs work</text>
<rect x="260" y="728" width="1080" height="82" rx="18" fill="#eaf3fb" stroke="#3b6f9f" stroke-width="2"/>
<text x="800" y="761" fill="#3b6f9f" font-size="21" font-weight="760" text-anchor="middle">Key Judgment</text>
<text x="800" y="792" fill="#1f2933" font-size="16" font-weight="700" text-anchor="middle">Distributed cognition best fits the unit of analysis, but needs control-rights distribution for operationalization</text>
</svg>
